# xmcd
#
# Track frame offsets: 
#        150
#        14079
#        26896
#        42408
#        59120
#        77279
#        92282
#        108135
#        124246
#        139214
#        156596
#        169398
#        185673
#
# Disc length: 2682 seconds
#
# Revision: 1
# Processed by: cddbd v1.5.2PL0 Copyright (c) Steve Scherf et al.
# Submitted via: ExactAudioCopy v1.1
#
DISCID=b70a780d
DTITLE=ZZ Ward - Til The Casket Drops
DYEAR=2012
DGENRE=R&B
TTITLE0=Til The Casket Drops
TTITLE1=Put The Gun Down
TTITLE2=Blue Eyes Blind
TTITLE3=Home
TTITLE4=Cryin' Wolf Feat. Kendrick Lamar
TTITLE5=Save My Life
TTITLE6=Last Love Song
TTITLE7=Lil' Darlin Feat. The Omys
TTITLE8=Move Like U Stole It
TTITLE9=Criminal Feat. Freddie Gibbs
TTITLE10=If I Could Be Her
TTITLE11=Charlie Ain't Home
TTITLE12=365 Days
EXTD=
EXTT0=
EXTT1=
EXTT2=
EXTT3=
EXTT4=
EXTT5=
EXTT6=
EXTT7=
EXTT8=
EXTT9=
EXTT10=
EXTT11=
EXTT12=
PLAYORDER=
